<?xml version="1.0" encoding="iso-8859-1"?>
<!-- Uploaded to: SVG Repo, www.svgrepo.com, Generator: SVG Repo Mixer Tools -->
<svg fill="#ffffff" height="20px" width="20px" version="1.1" id="Layer_1" xmlns="http://www.w3.org/2000/svg" xmlns:xlink="http://www.w3.org/1999/xlink" 
	 viewBox="0 0 359.456 359.456" xml:space="preserve">
<g id="XMLID_450_">
	<g>
		<path d="M344.788,261.44l-64.759-64.758l-61.013,41.681c-14.041-10.256-40.275-31.33-54.537-45.588
			c-13.962-13.961-32.607-37.637-41.941-50.74l42.208-60.668L92.903,9.548C86.634,3.302,78.845,0,70.377,0
			c-12.699,0-26.54,7.402-41.139,22c-9.77,9.771-25.823,31.549-23.555,67.624c2.896,46.069,34.553,99.618,94.094,159.159
			c68.618,68.617,113.205,110.673,163.065,110.673c1.915,0,3.858-0.065,5.773-0.193c7.193-0.479,14.658-2.306,24.205-5.925
			l0.102-0.04c8.896-3.482,25.719-14.553,39.376-28.21c14.402-14.403,21.7-28.349,21.691-41.453
			C353.983,275.111,350.798,267.433,344.788,261.44z M318.155,310.946c-12.295,12.295-26.623,21.401-32.481,23.712
			c-7.592,2.874-13.265,4.308-18.388,4.649c-43.492,2.9-86.099-37.4-153.367-104.667C-10.898,109.822,28.372,51.151,43.381,36.142
			C53.79,25.733,63.377,20,70.377,20c3.193,0,5.865,1.181,8.397,3.704l59.997,59.979l-40.438,58.124l3.665,5.639
			c8.228,12.661,31.704,42.839,48.339,59.474c16.745,16.739,49.772,43.038,63.016,51.922l5.622,3.771l58.64-40.06l53.041,53.04
			c2.24,2.235,3.331,4.87,3.333,8.057C333.992,287.927,331.939,297.163,318.155,310.946z"/>
	</g>
</g>
</svg>